/* XPM */
static char *_6418_572bee6960f4d50737329639612b5d25f163bb8bc0df6f09effd643f065022c7[] = {
/* columns rows colors chars-per-pixel */
"64 64 16 1 ",
"  c black",
". c #320000",
"X c #C68217",
"o c #F5C533",
"O c #F7FF74",
"+ c white",
"@ c black",
"# c black",
"$ c black",
"% c black",
"& c black",
"* c black",
"= c black",
"- c black",
"; c black",
": c black",
/* pixels */
"                                                                ",
"                                                                ",
"                                                                ",
"                                                                ",
"                                                                ",
"                                                                ",
"                                                                ",
"                                                                ",
"                                                                ",
"                                                                ",
"                                                                ",
"                                                                ",
"                                                                ",
"                                                                ",
"                                                                ",
"                                                                ",
"                                                                ",
"                                                                ",
"                                                                ",
"                                                                ",
"                                                                ",
"                                                                ",
"                                                                ",
"                                .                               ",
"                               .o.                              ",
"                               .o.                              ",
"                               .O.                              ",
"                           .. .XOX. ..                          ",
"                           .o..X+X..o.                          ",
"                            .Ooo+ooO.                           ",
"                           ..o+.+.+o..                          ",
"                        ...XXo.+++.oXX...                       ",
"                       .ooOO+++++++++OOoo.                      ",
"                        ...XXo.+++.oXX...                       ",
"                           ..o+.+.+o..                          ",
"                            .Ooo+ooO.                           ",
"                           .o.XX+X..o.                          ",
"                           .. .XOX. ..                          ",
"                               .O.                              ",
"                               .o.                              ",
"                               .o.                              ",
"                                .                               ",
"                                                                ",
"                                                                ",
"                                                                ",
"                                                                ",
"                                                                ",
"                                                                ",
"                                                                ",
"                                                                ",
"                                                                ",
"                                                                ",
"                                                                ",
"                                                                ",
"                                                                ",
"                                                                ",
"                                                                ",
"                                                                ",
"                                                                ",
"                                                                ",
"                                                                ",
"                                                                ",
"                                                                ",
"                                                                "
};
