/* XPM */
static char *a818ff3babd44efbbb47e5a9d34ba667GCDT8dfJ5oFb9uP3[] = {
/* columns rows colors chars-per-pixel */
"64 64 16 1 ",
"  c #7CC08E",
". c #A5D174",
"X c #E9F12F",
"o c #FFFC03",
"O c #F8F815",
"+ c #AED56D",
"@ c #9BCD7B",
"# c #B7D965",
"$ c #87C488",
"% c #F0F523",
"& c #91C981",
"* c #C0DD5E",
"= c #D9E944",
"- c #C9E156",
"; c #E1ED3A",
": c white",
/* pixels */
"                                                                ",
"                                                                ",
"                                                                ",
"                                                                ",
"                                                                ",
"                                                                ",
"                                                                ",
"                                                                ",
"                                                                ",
"                                                                ",
"                                                                ",
"                                                                ",
"                                                                ",
"                                                                ",
"                                                                ",
"                                          .XoO+                 ",
"                         @Xoo#            Xoooo$                ",
"                         Xoooo@           %oooo&                ",
"                         %oooo.           %oooo&                ",
"                         %oooo.           %oooo&                ",
"                         %oooo.           %oooo&                ",
"                         %oooo.           %oooo&                ",
"                         %oooo.           %oooo&                ",
"                         %oooo.           %oooo&                ",
"                         Ooooo.           %oooo&                ",
"                         ooooo#    @Ooooooooooo&                ",
"                        @ooooo*    =ooooooooooo&                ",
"                        *ooooo=    =ooooooooooo&                ",
"                        %oooooo$   @Ooooooooooo&                ",
"                       #ooooooo-          %oooo&                ",
"                      &Ooooooooo@         %oooo&                ",
"                     &%ooooOoooo%&        %oooo&                ",
"                    $Xooooo*Ooooo%$       %oooo&                ",
"                   $XoooooX *oooooX$      %oooo&                ",
"                  $Xooooo%&  =oooooX$     %oooo&                ",
"                 &%oooooO&   $XoooooX$    %oooo&                ",
"                 %oooooO@     &Oooooo;    %oooo&                ",
"                @oooooo@       @oooooo    %oooo&                ",
"                $ooooo.         .ooooO    %oooo&                ",
"                 -ooO@           #ooo*    %oooo&                ",
"                  .*&             .*+     %oooo&                ",
"                                          %oooo&                ",
"                                          %oooo&                ",
"                                          %oooo&                ",
"                                          %oooo&                ",
"                                          %oooo&                ",
"                                          %oooo&                ",
"                                          %oooo&                ",
"                                          Xoooo$                ",
"                                          @XoO+                 ",
"                                                                ",
"                                                                ",
"                                                                ",
"                                                                ",
"                                                                ",
"                                                                ",
"                                                                ",
"                                                                ",
"                                                                ",
"                                                                ",
"                                                                ",
"                                                                ",
"                                                                ",
"                                                                "
};
